<svg width="20" height="20" viewBox="0 0 20 20" fill="#6AA460" xmlns="http://www.w3.org/2000/svg">
<mask id="path-1-inside-1_8_2" fill="white">
<path d="M0 4H16V20H0V4Z"/>
</mask>
<path d="M0 4V3H-2V4H0ZM16 4H17V3H16V4ZM16 20V22H17V20H16ZM0 20H-2V22H0V20ZM0 5H16V3H0V5ZM15 4V20H17V4H15ZM16 18H0V22H16V18ZM2 20V4H-2V20H2Z" fill="white" mask="url(#path-1-inside-1_8_2)"/>
<rect x="8" y="2" width="9" height="9" fill="#6AA460"/>
<path d="M20 0.999999C20 0.447715 19.5523 -2.87362e-07 19 -5.40243e-07L10 2.60547e-07C9.44772 -7.66277e-08 9 0.447715 9 1C9 1.55228 9.44772 2 10 2L18 2L18 10C18 10.5523 18.4477 11 19 11C19.5523 11 20 10.5523 20 10L20 0.999999ZM5.70711 15.7071L19.7071 1.70711L18.2929 0.292893L4.29289 14.2929L5.70711 15.7071Z" fill="white"/>
</svg>
